<svg width="80" height="80" viewBox="0 0 80 80" fill="none" xmlns="http://www.w3.org/2000/svg">
<g clip-path="url(#clip0_81_50)">
<path d="M49.0616 32.9621C54.0514 37.8421 54.0514 45.7841 49.0579 50.6642C46.6399 53.031 43.4243 54.3334 40.0039 54.3334C36.5835 54.3334 33.3679 53.031 30.9462 50.6642C28.5281 48.301 27.1965 45.155 27.1965 41.8113C27.1965 38.4677 28.5281 35.3217 30.9462 32.9585L39.3272 24.5995C39.6857 24.2447 40.3222 24.2447 40.6771 24.5995L49.0616 32.9621ZM47.7228 49.3585C51.981 45.1992 51.981 38.4242 47.7228 34.2648C47.7228 34.2612 47.7191 34.2612 47.7155 34.2575L40.004 26.568L32.2889 34.2575C30.222 36.2806 29.0879 38.9619 29.0879 41.8117C29.0879 44.6614 30.222 47.3429 32.2852 49.3585C34.3448 51.3741 37.0885 52.4863 40.004 52.4863C42.9195 52.4863 45.6596 51.3742 47.7228 49.3585Z" fill="#2D213F"/>
<path d="M46.5924 34.3818C46.7351 34.5062 50.064 37.5169 49.336 42.4299C49.2665 42.8908 48.8642 43.2201 48.3996 43.2201C48.3558 43.2201 48.3118 43.2164 48.2642 43.2128C47.7484 43.1396 47.3899 42.6677 47.4667 42.1665C48.0521 38.2156 45.3522 35.7757 45.3266 35.75C44.9389 35.4097 44.9096 34.8245 45.2571 34.4476C45.6083 34.0673 46.2046 34.0379 46.5924 34.3818Z" fill="#2D213F"/>
<path d="M48.2423 43.9332C48.6813 44.2075 48.8129 44.7781 48.5313 45.2062L48.0118 46.0037C47.8325 46.278 47.5289 46.4317 47.2143 46.4317C47.0423 46.4317 46.8667 46.3841 46.7094 46.2853C46.2704 46.011 46.1388 45.4404 46.4204 45.0123L46.9363 44.2148C47.218 43.7831 47.8033 43.6588 48.2423 43.9332Z" fill="#2D213F"/>
<path d="M47.7228 34.2645C51.981 38.4238 51.981 45.1988 47.7228 49.3582C45.6595 51.3739 42.9195 52.4859 40.004 52.4859C37.0885 52.4859 34.3448 51.3739 32.2852 49.3582C30.222 47.3426 29.0879 44.6611 29.0879 41.8113C29.0879 38.9616 30.222 36.2801 32.2888 34.2572L40.004 26.5676L47.7155 34.2572C47.7191 34.2612 47.7228 34.2612 47.7228 34.2645ZM49.3359 42.4296C50.0639 37.5166 46.7349 34.506 46.5922 34.3815C46.2045 34.0376 45.6082 34.0669 45.257 34.4474C44.9094 34.8242 44.9387 35.4095 45.3265 35.7498C45.3521 35.7753 48.0518 38.2154 47.4666 42.1663C47.3897 42.6675 47.7482 43.1394 48.2641 43.2126C48.3117 43.2162 48.3555 43.2199 48.3995 43.2199C48.864 43.2198 49.2665 42.8908 49.3359 42.4296ZM48.5312 45.2062C48.8129 44.7781 48.6812 44.2075 48.2422 43.9331C47.8033 43.6588 47.218 43.7831 46.9362 44.2148L46.4204 45.0123C46.1387 45.4403 46.2704 46.011 46.7094 46.2853C46.8667 46.3841 47.0423 46.4317 47.2142 46.4317C47.5289 46.4317 47.8325 46.278 48.0117 46.0036L48.5312 45.2062Z" fill="#AAE1E9"/>
<path d="M30.4348 36.6698C29.5561 38.2289 29.0879 39.9853 29.0879 41.8118C29.0879 44.6616 30.222 47.343 32.2852 49.3587C34.3448 51.3743 37.0885 52.4864 40.004 52.4864C42.2874 52.4864 44.4615 51.8016 46.2887 50.5374C33.832 51.2558 30.6183 43.0314 30.4348 36.6698Z" fill="#92C1CA"/>
<path d="M9.35648 64.3576C15.0001 71.5 24.5 77.5 34.0001 78.5" stroke="#88A8CD" stroke-width="2" stroke-linecap="round"/>
<path d="M68.5001 66.5001C82.0001 52.5001 80 33 76.5001 26" stroke="#88A8CD" stroke-linecap="round"/>
<path d="M40.5 1.00012C22.5 1.00012 1 14 1 40.0001" stroke="#88A8CD" stroke-linecap="round"/>
<path d="M20.5 25.5C24.5 18 34.5 15 42 15.5" stroke="#383958" stroke-width="2.5" stroke-linecap="round"/>
<path d="M15.5 41.9999C18.5 61.9999 37.5 67.9999 50.5 61.9999M62.5 30.5C66 36.5 65 45.5 62 51" stroke="#383958" stroke-width="2" stroke-linecap="round"/>
<path d="M17.4996 17.5C5.49999 28.5 6.5 45.5 10.9994 55" stroke="#6668A1" stroke-width="1.5" stroke-linecap="round"/>
<path d="M72.5 38C73 41.5 72 48.5 70.5 52M57 68C50 72.5 37 74.5 28 70.5" stroke="#6668A1" stroke-width="1.5" stroke-linecap="round"/>
<path d="M43.6452 7.10802C55.7176 7.58287 65.4081 14.8177 70.3275 23.9856" stroke="#4B4D7C" stroke-width="3" stroke-linecap="round"/>
</g>
<defs>
<clipPath id="clip0_81_50">
<rect width="80" height="80" fill="white"/>
</clipPath>
</defs>
</svg>
